# xmcd
#
# Track frame offsets:
#	182
#	22527
#	50337
#	83425
#	101827
#	138155
#	161670
#
# Disc length: 2333 seconds
#
# Revision: 1
# Processed by: cddbd v1.4PL0 Copyright (c) Steve Scherf et al.
# Submitted via: audiograbber 1.81.03
#
DISCID=44091b07
DTITLE=Lightnin' Hopkins - Lightnin's Love (Black Label)
DYEAR=1991
DGENRE=Blues
TTITLE0=I Don't Need Your Woman
TTITLE1=I Wish I was a Baby
TTITLE2=Little Boy Blue
TTITLE3=The Crazy Song
TTITLE4=Lightnin's Love
TTITLE5=That Man from New York City
TTITLE6=Take it if You Want It
EXTD=
EXTT0=
EXTT1=
EXTT2=
EXTT3=
EXTT4=
EXTT5=
EXTT6=
PLAYORDER=
